# xmcd
#
# Track frame offsets:
#	150
#	20100
#	32025
#	41042
#	65235
#	78695
#	90567
#	101827
#	118887
#	127357
#	137942
#	156557
#
# Disc length: 2348 seconds
#
# Revision: 1
# Processed by: cddbd v1.5.1PL0 Copyright (c) Steve Scherf et al.
# Submitted via: EasyCDDAExtractor 7.0.5.3
#
DISCID=bf092a0c
DTITLE=Dave Lindholm and White Midnight - Creampistols
DYEAR=1989
DGENRE=Blues
TTITLE0=You Need Man
TTITLE1=You've Got The Key
TTITLE2=Yippee!
TTITLE3=Shoot
TTITLE4=New Africa Rocks
TTITLE5=When She Comes
TTITLE6=Do The Rock
TTITLE7=You Should Have Known
TTITLE8=Give Me Little Sign
TTITLE9=The International
TTITLE10=Knockin' On Heaven's Door
TTITLE11=Rollin' and Tumblin'
EXTD=
EXTT0=
EXTT1=
EXTT2=
EXTT3=
EXTT4=
EXTT5=
EXTT6=
EXTT7=
EXTT8=
EXTT9=
EXTT10=
EXTT11=
PLAYORDER=
